<svg width="57" height="57" viewBox="0 0 57 57" fill="none" xmlns="http://www.w3.org/2000/svg">
<path d="M28.5013 3.39062C25.276 3.39062 22.6621 6.88721 22.6621 11.1998C22.6621 15.5129 25.276 19.0086 28.5013 19.0086C26.9521 19.0086 24.8376 16.6558 24.8376 13.6112C24.8376 10.5675 25.8677 5.68707 28.5013 5.68707C31.3625 5.68707 32.2786 10.5675 32.2786 13.6112C32.2786 16.6558 30.0492 19.0086 28.5013 19.0086C31.7249 19.0086 34.3396 15.5129 34.3396 11.1998C34.3396 6.88721 31.7249 3.39062 28.5013 3.39062Z" fill="url(#paint0_linear_1321_69732)"/>
<path d="M28.5007 19.465C25.0281 19.465 22.2031 15.756 22.2031 11.1973C22.2031 6.63861 25.0281 2.92969 28.5007 2.92969C31.973 2.92969 34.7979 6.63861 34.7979 11.1973C34.7979 15.756 31.973 19.465 28.5007 19.465ZM28.5007 6.14343C26.3145 6.14343 25.296 10.5979 25.296 13.6087C25.296 16.4268 27.2399 18.5477 28.5007 18.5477C29.8111 18.5477 31.8192 16.335 31.8192 13.6087C31.8192 10.6077 30.9356 6.14343 28.5007 6.14343ZM28.5007 3.84698C25.5339 3.84698 23.1204 7.14404 23.1204 11.1973C23.1204 13.6275 23.9882 15.7859 25.3224 17.1249C24.7529 16.147 24.3787 14.9302 24.3787 13.6087C24.3787 10.3676 25.4976 5.22614 28.5007 5.22614C31.8516 5.22614 32.7369 10.7094 32.7369 13.6087C32.7369 14.8387 32.3823 16.0009 31.8362 16.96C33.0812 15.6125 33.8802 13.5301 33.8802 11.1973C33.8802 7.14404 31.4671 3.84698 28.5007 3.84698Z" fill="#F09400"/>
<path d="M49.5178 44.5503C46.4501 39.2994 43.8397 38.0715 41.3206 22.6834C40.1209 15.3497 37.4284 9.82031 28.4994 9.82031C19.5691 9.82031 16.877 15.3497 15.6769 22.6834C13.1578 38.0715 10.5474 39.2994 7.47973 44.5503C3.88488 50.7043 28.4994 49.5559 28.4994 49.5559C28.4994 49.5559 53.1126 50.7043 49.5178 44.5503Z" fill="url(#paint1_linear_1321_69732)"/>
<path d="M32.8948 50.0969C30.3416 50.0969 28.5036 50.0123 28.4792 50.0114C28.4976 50.0123 26.66 50.0969 24.1064 50.0969C17.1559 50.0969 8.53626 49.5141 6.94305 46.7387C6.65509 46.2371 6.44617 45.41 7.0849 44.3162C7.67151 43.3122 8.24146 42.4534 8.7926 41.6237C11.157 38.063 13.1988 34.9877 15.2256 22.607C16.2976 16.056 18.7128 9.35938 28.5006 9.35938C38.2875 9.35938 40.7032 16.056 41.7747 22.607C43.8016 34.9877 45.843 38.063 48.2073 41.6237C48.7585 42.4534 49.3284 43.3122 49.9146 44.3162C50.5538 45.41 50.3444 46.2371 50.0565 46.7387C48.4637 49.5141 39.8444 50.0969 32.8948 50.0969ZM28.4792 49.0954C28.5399 49.0963 30.3604 49.18 32.8948 49.18C42.2387 49.18 48.2048 48.1238 49.2609 46.2824C49.5079 45.8526 49.4626 45.3604 49.1234 44.7794C48.5491 43.7975 47.9869 42.9507 47.4434 42.1313C45.0201 38.4818 42.9274 35.3304 40.869 22.7548C39.8094 16.2739 37.5766 10.2767 28.5006 10.2767C19.4238 10.2767 17.1914 16.2739 16.1306 22.7548C14.0721 35.3304 11.9799 38.4818 9.55695 42.1313C9.01306 42.9507 8.45038 43.7975 7.87701 44.7794C7.53735 45.3604 7.49207 45.8526 7.73859 46.2824C8.79559 48.1238 14.7612 49.18 24.1064 49.18C26.6417 49.18 28.4613 49.0963 28.4792 49.0954Z" fill="#F09400"/>
<path d="M28.4994 50.7058C40.1045 50.7058 49.5124 48.6748 49.5124 46.1693C49.5124 43.6639 40.1045 41.6328 28.4994 41.6328C16.8942 41.6328 7.48633 43.6639 7.48633 46.1693C7.48633 48.6748 16.8942 50.7058 28.4994 50.7058Z" fill="#C97A09"/>
<path opacity="0.69" d="M23.2351 13.3839C22.6993 11.6078 18.8849 16.1405 18.4658 23.9672C18.1483 29.9093 14.0993 39.2233 12.0156 41.6347C12.0156 41.6347 17.6429 39.2233 22.0905 39.5676C22.0905 39.5676 21.6193 32.8676 21.747 27.3518C21.8923 21.0662 23.5786 14.5225 23.2351 13.3839Z" fill="white"/>
<path d="M36.184 45.9696C36.184 48.5861 32.7438 50.7069 28.5009 50.7069C24.257 50.7069 20.8164 48.5861 20.8164 45.9696C20.8164 43.3523 24.257 43.0703 28.5009 43.0703C32.7438 43.0703 36.184 43.3523 36.184 45.9696Z" fill="url(#paint2_linear_1321_69732)"/>
<path d="M28.5003 51.2301C23.8959 51.2301 20.2891 48.9178 20.2891 45.9656C20.2891 42.8014 24.1732 42.5391 28.5003 42.5391C32.827 42.5391 36.7107 42.8014 36.7107 45.9656C36.7107 48.9178 33.1039 51.2301 28.5003 51.2301ZM28.5003 43.5935C23.9672 43.5935 21.3427 43.9814 21.3427 45.9656C21.3427 48.2479 24.6205 50.1757 28.5003 50.1757C32.3793 50.1757 35.6562 48.2479 35.6562 45.9656C35.6562 43.9814 33.033 43.5935 28.5003 43.5935Z" fill="#F09400"/>
<path d="M24.8522 46.887C25.7199 46.887 26.4232 46.4191 26.4232 45.8419C26.4232 45.2648 25.7199 44.7969 24.8522 44.7969C23.9846 44.7969 23.2812 45.2648 23.2812 45.8419C23.2812 46.4191 23.9846 46.887 24.8522 46.887Z" fill="white"/>
<path d="M49.7634 54.1021C49.249 54.1021 48.6979 53.8457 48.251 53.3997L3.60291 8.7533C2.81464 7.96417 2.66852 6.91999 3.26282 6.3244L6.32062 3.2666C6.89014 2.69666 7.99201 2.84961 8.74909 3.60584L53.3967 48.2522C53.7155 48.5709 53.9453 48.9572 54.0436 49.3408C54.1786 49.8629 54.0667 50.3517 53.7368 50.6815L50.6786 53.7397C50.4453 53.973 50.1198 54.1021 49.7634 54.1021ZM4.49158 7.31732C4.52234 7.39722 4.5907 7.51941 4.71418 7.64289L49.361 52.288C49.484 52.411 49.6062 52.4794 49.6865 52.511L52.5089 49.6877C52.4782 49.6083 52.4089 49.4861 52.2859 49.363L7.63867 4.7171C7.51563 4.59406 7.39386 4.5257 7.31397 4.49494L4.49158 7.31732Z" fill="white"/>
<path d="M52.8409 48.8057C53.2972 49.262 53.4501 49.855 53.181 50.1242L50.1227 53.1824C49.8536 53.4516 49.2606 53.296 48.8051 52.8415L4.15789 8.19594C3.70202 7.73965 3.54949 7.14663 3.81823 6.87746L6.87561 3.82009C7.14434 3.55135 7.73779 3.70431 8.19366 4.15975L52.8409 48.8057Z" fill="#E30012"/>
<defs>
<linearGradient id="paint0_linear_1321_69732" x1="23.2026" y1="10.5914" x2="32.8467" y2="11.6981" gradientUnits="userSpaceOnUse">
<stop stop-color="#FFD03F"/>
<stop offset="0.757576" stop-color="#FFC81F"/>
<stop offset="1" stop-color="#FFDD9F"/>
</linearGradient>
<linearGradient id="paint1_linear_1321_69732" x1="11.0699" y1="28.2192" x2="45.9864" y2="32.2261" gradientUnits="userSpaceOnUse">
<stop stop-color="#FFD03F"/>
<stop offset="0.757576" stop-color="#FFC81F"/>
<stop offset="1" stop-color="#FFDD9F"/>
</linearGradient>
<linearGradient id="paint2_linear_1321_69732" x1="29.3058" y1="55.7253" x2="28.3214" y2="43.8035" gradientUnits="userSpaceOnUse">
<stop stop-color="#FFD03F"/>
<stop offset="0.757576" stop-color="#FFC81F"/>
<stop offset="1" stop-color="#FFDD9F"/>
</linearGradient>
</defs>
</svg>
