<svg width="57" height="56" viewBox="0 0 57 56" fill="none" xmlns="http://www.w3.org/2000/svg">
<path d="M27.0067 50.2596L24.0853 52.1169C23.9365 52.2129 23.7631 52.264 23.586 52.264C23.4089 52.264 23.2355 52.2129 23.0867 52.1169L19.6613 49.9329C19.5109 49.8414 19.3381 49.7929 19.162 49.7929C18.9859 49.7929 18.8131 49.8414 18.6627 49.9329L15.228 52.1169C15.0791 52.2129 14.9058 52.264 14.7287 52.264C14.5515 52.264 14.3782 52.2129 14.2293 52.1169L10.7947 49.9329C10.6442 49.8414 10.4715 49.7929 10.2953 49.7929C10.1192 49.7929 9.94644 49.8414 9.79599 49.9329L6.36132 52.1169C6.21248 52.2129 6.03911 52.264 5.86199 52.264C5.68486 52.264 5.5115 52.2129 5.36265 52.1169L1.87199 49.8956C1.73821 49.8108 1.62791 49.6936 1.55126 49.555C1.4746 49.4164 1.43404 49.2607 1.43332 49.1023V4.09507C1.43404 3.93665 1.4746 3.78097 1.55126 3.64233C1.62791 3.5037 1.73821 3.38658 1.87199 3.30173L5.36265 1.0804C5.51133 0.983946 5.68476 0.932617 5.86199 0.932617C6.03921 0.932617 6.21264 0.983946 6.36132 1.0804L9.79599 3.26627C9.94644 3.35784 10.1192 3.40628 10.2953 3.40628C10.4715 3.40628 10.6442 3.35784 10.7947 3.26627L14.2293 1.08227C14.378 0.985813 14.5514 0.934484 14.7287 0.934484C14.9059 0.934484 15.0793 0.985813 15.228 1.08227L18.6627 3.26627C18.8131 3.35784 18.9859 3.40628 19.162 3.40628C19.3381 3.40628 19.5109 3.35784 19.6613 3.26627L23.0867 1.08227C23.2353 0.985813 23.4088 0.934484 23.586 0.934484C23.7632 0.934484 23.9366 0.985813 24.0853 1.08227L27.5293 3.26627C27.6781 3.35784 27.8493 3.40632 28.024 3.40632C28.1987 3.40632 28.3699 3.35784 28.5187 3.26627L31.9627 1.08227C32.1113 0.985813 32.2848 0.934484 32.462 0.934484C32.6392 0.934484 32.8126 0.985813 32.9613 1.08227L36.4613 3.3036C36.5951 3.38844 36.7054 3.50557 36.7821 3.6442C36.8587 3.78283 36.8993 3.93852 36.9 4.09693V21.568L27.0067 50.2596Z" fill="#E2E7F2"/>
<path d="M38.7667 55.0668C48.0451 55.0668 55.5667 47.5452 55.5667 38.2668C55.5667 28.9884 48.0451 21.4668 38.7667 21.4668C29.4883 21.4668 21.9667 28.9884 21.9667 38.2668C21.9667 47.5452 29.4883 55.0668 38.7667 55.0668Z" fill="#1A4187"/>
<path d="M50.5267 33.7964L46.9893 31.0244C46.8407 30.9049 46.6622 30.8286 46.4731 30.8038C46.2841 30.779 46.0918 30.8066 45.9175 30.8837C45.7431 30.9607 45.5932 31.0843 45.4843 31.2408C45.3754 31.3973 45.3117 31.5807 45.3 31.7711V32.6671H34.1C33.8525 32.6671 33.6151 32.7654 33.44 32.9404C33.265 33.1155 33.1667 33.3529 33.1667 33.6004V35.4671C33.1667 35.7146 33.265 35.952 33.44 36.127C33.6151 36.3021 33.8525 36.4004 34.1 36.4004H45.3V37.2964C45.3113 37.4869 45.3749 37.6705 45.4837 37.8272C45.5926 37.9839 45.7425 38.1076 45.917 38.1848C46.0915 38.2619 46.2839 38.2895 46.4731 38.2645C46.6622 38.2395 46.8408 38.1629 46.9893 38.0431L50.5267 35.2711C50.6419 35.1857 50.7355 35.0746 50.8 34.9465C50.8645 34.8185 50.8982 34.6771 50.8982 34.5337C50.8982 34.3903 50.8645 34.249 50.8 34.1209C50.7355 33.9929 50.6419 33.8817 50.5267 33.7964Z" fill="#3560D8"/>
<path d="M27.0067 42.7378L30.544 45.5098C30.6926 45.6293 30.8712 45.7056 31.0602 45.7304C31.2492 45.7552 31.4415 45.7276 31.6159 45.6505C31.7903 45.5734 31.9401 45.4499 32.049 45.2934C32.1579 45.1369 32.2217 44.9534 32.2333 44.7631V43.8671H43.4333C43.6809 43.8671 43.9183 43.7688 44.0933 43.5938C44.2683 43.4187 44.3667 43.1813 44.3667 42.9338V41.0671C44.3667 40.8196 44.2683 40.5822 44.0933 40.4072C43.9183 40.2321 43.6809 40.1338 43.4333 40.1338H32.2333V39.2378C32.222 39.0473 32.1584 38.8637 32.0496 38.707C31.9407 38.5503 31.7908 38.4265 31.6163 38.3494C31.4418 38.2723 31.2494 38.2447 31.0602 38.2697C30.8711 38.2947 30.6925 38.3713 30.544 38.4911L27.0067 41.2631C26.8914 41.3485 26.7978 41.4596 26.7333 41.5877C26.6688 41.7157 26.6352 41.8571 26.6352 42.0005C26.6352 42.1439 26.6688 42.2852 26.7333 42.4133C26.7978 42.5413 26.8914 42.6525 27.0067 42.7378Z" fill="#3560D8"/>
<path d="M11.6998 17.8271V12.3055C12.2439 12.4978 12.7152 12.8535 13.0494 13.324C13.3835 13.7945 13.5641 14.3567 13.5665 14.9337C13.5665 15.1813 13.6648 15.4187 13.8399 15.5937C14.0149 15.7687 14.2523 15.8671 14.4998 15.8671C14.7474 15.8671 14.9848 15.7687 15.1598 15.5937C15.3348 15.4187 15.4332 15.1813 15.4332 14.9337C15.4318 13.8583 15.0597 12.8163 14.3797 11.9832C13.6996 11.1502 12.7532 10.577 11.6998 10.3604V9.33372C11.6998 9.08619 11.6015 8.84879 11.4265 8.67376C11.2514 8.49872 11.014 8.40039 10.7665 8.40039C10.519 8.40039 10.2816 8.49872 10.1065 8.67376C9.9315 8.84879 9.83317 9.08619 9.83317 9.33372V10.3604C8.77823 10.5746 7.82979 11.1469 7.14855 11.9804C6.4673 12.8139 6.09515 13.8573 6.09515 14.9337C6.09515 16.0102 6.4673 17.0536 7.14855 17.887C7.82979 18.7205 8.77823 19.2928 9.83317 19.5071V25.0296C9.28897 24.8372 8.81753 24.4813 8.48338 24.0107C8.14923 23.54 7.9687 22.9776 7.9665 22.4004C7.9665 22.1529 7.86817 21.9155 7.69313 21.7404C7.5181 21.5654 7.2807 21.4671 7.03317 21.4671C6.78563 21.4671 6.54823 21.5654 6.3732 21.7404C6.19817 21.9155 6.09983 22.1529 6.09983 22.4004C6.10119 23.4758 6.47325 24.5178 7.1533 25.3509C7.83336 26.184 8.77982 26.7571 9.83317 26.9737V28.0004C9.83317 28.2479 9.9315 28.4853 10.1065 28.6604C10.2816 28.8354 10.519 28.9337 10.7665 28.9337C11.014 28.9337 11.2514 28.8354 11.4265 28.6604C11.6015 28.4853 11.6998 28.2479 11.6998 28.0004V26.9737C12.7548 26.7595 13.7032 26.1872 14.3845 25.3537C15.0657 24.5202 15.4378 23.4769 15.4378 22.4004C15.4378 21.3239 15.0657 20.2806 14.3845 19.4471C13.7032 18.6136 12.7548 18.0413 11.6998 17.8271ZM7.9665 14.9337C7.96889 14.3567 8.14951 13.7945 8.48365 13.324C8.81778 12.8535 9.28912 12.4978 9.83317 12.3055V17.562C9.28912 17.3696 8.81778 17.0139 8.48365 16.5434C8.14951 16.073 7.96889 15.5108 7.9665 14.9337ZM11.6998 25.0287V19.7721C12.2454 19.9622 12.7183 20.3173 13.053 20.7883C13.3876 21.2592 13.5674 21.8227 13.5674 22.4004C13.5674 22.9781 13.3876 23.5415 13.053 24.0125C12.7183 24.4834 12.2454 24.8386 11.6998 25.0287Z" fill="#E5A30E"/>
<path d="M32.2333 10.2661H19.1667C18.9191 10.2661 18.6817 10.1677 18.5067 9.99271C18.3317 9.81768 18.2333 9.58028 18.2333 9.33275C18.2333 9.08521 18.3317 8.84782 18.5067 8.67278C18.6817 8.49775 18.9191 8.39941 19.1667 8.39941H32.2333C32.4809 8.39941 32.7183 8.49775 32.8933 8.67278C33.0683 8.84782 33.1667 9.08521 33.1667 9.33275C33.1667 9.58028 33.0683 9.81768 32.8933 9.99271C32.7183 10.1677 32.4809 10.2661 32.2333 10.2661Z" fill="#9EA9BA"/>
<path d="M32.2333 14.9331H19.1667C18.9191 14.9331 18.6817 14.8347 18.5067 14.6597C18.3317 14.4847 18.2333 14.2473 18.2333 13.9997C18.2333 13.7522 18.3317 13.5148 18.5067 13.3398C18.6817 13.1647 18.9191 13.0664 19.1667 13.0664H32.2333C32.4809 13.0664 32.7183 13.1647 32.8933 13.3398C33.0683 13.5148 33.1667 13.7522 33.1667 13.9997C33.1667 14.2473 33.0683 14.4847 32.8933 14.6597C32.7183 14.8347 32.4809 14.9331 32.2333 14.9331Z" fill="#9EA9BA"/>
<path d="M32.2333 19.5991H19.1667C18.9191 19.5991 18.6817 19.5008 18.5067 19.3257C18.3317 19.1507 18.2333 18.9133 18.2333 18.6658C18.2333 18.4182 18.3317 18.1808 18.5067 18.0058C18.6817 17.8308 18.9191 17.7324 19.1667 17.7324H32.2333C32.4809 17.7324 32.7183 17.8308 32.8933 18.0058C33.0683 18.1808 33.1667 18.4182 33.1667 18.6658C33.1667 18.9133 33.0683 19.1507 32.8933 19.3257C32.7183 19.5008 32.4809 19.5991 32.2333 19.5991Z" fill="#9EA9BA"/>
<path d="M24.7667 24.2661H19.1667C18.9191 24.2661 18.6817 24.1677 18.5067 23.9927C18.3317 23.8177 18.2333 23.5803 18.2333 23.3327C18.2333 23.0852 18.3317 22.8478 18.5067 22.6728C18.6817 22.4977 18.9191 22.3994 19.1667 22.3994H24.7667C25.0142 22.3994 25.2516 22.4977 25.4266 22.6728C25.6017 22.8478 25.7 23.0852 25.7 23.3327C25.7 23.5803 25.6017 23.8177 25.4266 23.9927C25.2516 24.1677 25.0142 24.2661 24.7667 24.2661Z" fill="#9EA9BA"/>
<path d="M21.0333 28.9331H19.1667C18.9191 28.9331 18.6817 28.8347 18.5067 28.6597C18.3317 28.4847 18.2333 28.2473 18.2333 27.9997C18.2333 27.7522 18.3317 27.5148 18.5067 27.3398C18.6817 27.1647 18.9191 27.0664 19.1667 27.0664H21.0333C21.2809 27.0664 21.5183 27.1647 21.6933 27.3398C21.8683 27.5148 21.9667 27.7522 21.9667 27.9997C21.9667 28.2473 21.8683 28.4847 21.6933 28.6597C21.5183 28.8347 21.2809 28.9331 21.0333 28.9331Z" fill="#9EA9BA"/>
<path d="M17.3 34.5327H6.09999C5.85245 34.5327 5.61506 34.4344 5.44002 34.2593C5.26499 34.0843 5.16666 33.8469 5.16666 33.5993C5.16666 33.3518 5.26499 33.1144 5.44002 32.9394C5.61506 32.7643 5.85245 32.666 6.09999 32.666H17.3C17.5475 32.666 17.7849 32.7643 17.96 32.9394C18.135 33.1144 18.2333 33.3518 18.2333 33.5993C18.2333 33.8469 18.135 34.0843 17.96 34.2593C17.7849 34.4344 17.5475 34.5327 17.3 34.5327Z" fill="#9EA9BA"/>
<path d="M17.3 39.1997H6.09999C5.85245 39.1997 5.61506 39.1013 5.44002 38.9263C5.26499 38.7513 5.16666 38.5139 5.16666 38.2663C5.16666 38.0188 5.26499 37.7814 5.44002 37.6064C5.61506 37.4313 5.85245 37.333 6.09999 37.333H17.3C17.5475 37.333 17.7849 37.4313 17.96 37.6064C18.135 37.7814 18.2333 38.0188 18.2333 38.2663C18.2333 38.5139 18.135 38.7513 17.96 38.9263C17.7849 39.1013 17.5475 39.1997 17.3 39.1997Z" fill="#9EA9BA"/>
<path d="M17.3 43.8657H6.09999C5.85245 43.8657 5.61506 43.7674 5.44002 43.5923C5.26499 43.4173 5.16666 43.1799 5.16666 42.9324C5.16666 42.6848 5.26499 42.4474 5.44002 42.2724C5.61506 42.0974 5.85245 41.999 6.09999 41.999H17.3C17.5475 41.999 17.7849 42.0974 17.96 42.2724C18.135 42.4474 18.2333 42.6848 18.2333 42.9324C18.2333 43.1799 18.135 43.4173 17.96 43.5923C17.7849 43.7674 17.5475 43.8657 17.3 43.8657Z" fill="#9EA9BA"/>
</svg>
