<svg width="128" height="29" viewBox="0 0 128 29" fill="none" xmlns="http://www.w3.org/2000/svg">
<path d="M63.9792 12.1744C61.392 12.1744 59.2833 14.1423 59.2833 16.8527C59.2833 19.5466 61.392 21.531 63.9792 21.531C66.5675 21.531 68.6762 19.5466 68.6762 16.8527C68.6751 14.1423 66.5664 12.1744 63.9792 12.1744ZM63.9792 19.6896C62.5613 19.6896 61.3392 18.5203 61.3392 16.8538C61.3392 15.1697 62.5624 14.018 63.9792 14.018C65.3971 14.018 66.6192 15.1697 66.6192 16.8538C66.6192 18.5192 65.3971 19.6896 63.9792 19.6896ZM53.7338 12.1744C51.1466 12.1744 49.0379 14.1423 49.0379 16.8527C49.0379 19.5466 51.1466 21.531 53.7338 21.531C56.3221 21.531 58.4308 19.5466 58.4308 16.8527C58.4308 14.1423 56.3221 12.1744 53.7338 12.1744ZM53.7338 19.6896C52.3159 19.6896 51.0938 18.5203 51.0938 16.8538C51.0938 15.1697 52.317 14.018 53.7338 14.018C55.1517 14.018 56.3738 15.1697 56.3738 16.8538C56.3749 18.5192 55.1517 19.6896 53.7338 19.6896ZM41.548 13.611V15.5954H46.2978C46.1559 16.7119 45.7841 17.527 45.2165 18.0935C44.5257 18.7843 43.4444 19.5466 41.548 19.5466C38.6242 19.5466 36.3384 17.1893 36.3384 14.2655C36.3384 11.3417 38.6242 8.9844 41.548 8.9844C43.1254 8.9844 44.2771 9.6048 45.1274 10.4023L46.5277 9.002C45.3397 7.8679 43.7634 7 41.548 7C37.5429 7 34.1758 10.2604 34.1758 14.2655C34.1758 18.2706 37.5429 21.531 41.548 21.531C43.7095 21.531 45.3408 20.8215 46.6157 19.4927C47.9269 18.1815 48.335 16.3379 48.335 14.8496C48.335 14.3898 48.2998 13.9641 48.2283 13.6099H41.548V13.611ZM91.3868 15.1521C90.9974 14.1071 89.8094 12.1744 87.3817 12.1744C84.9716 12.1744 82.9685 14.0708 82.9685 16.8527C82.9685 19.4751 84.954 21.531 87.6116 21.531C89.7555 21.531 90.9963 20.2198 91.5111 19.4575L89.9161 18.3938C89.3848 19.1737 88.6577 19.6874 87.6116 19.6874C86.5666 19.6874 85.8219 19.2089 85.3434 18.2695L91.5991 15.6823L91.3868 15.1521ZM85.0068 16.7119C84.954 14.9035 86.4071 13.9828 87.4532 13.9828C88.2683 13.9828 88.9591 14.3909 89.1901 14.975L85.0068 16.7119ZM79.9215 21.2483H81.9763V7.4972H79.9215V21.2483ZM76.5533 13.2205H76.4829C76.022 12.6705 75.1354 12.1744 74.02 12.1744C71.6803 12.1744 69.5364 14.2303 69.5364 16.8714C69.5364 19.4938 71.6803 21.5321 74.02 21.5321C75.1365 21.5321 76.022 21.036 76.4829 20.4695H76.5533V21.1427C76.5533 22.9324 75.5963 23.8894 74.0552 23.8894C72.7968 23.8894 72.0169 22.9863 71.6979 22.224L69.9082 22.9687C70.4219 24.2084 71.7859 25.733 74.0552 25.733C76.4653 25.733 78.5036 24.3151 78.5036 20.8589V12.4593H76.5544V13.2205H76.5533ZM74.1971 19.6896C72.7792 19.6896 71.5923 18.5016 71.5923 16.8714C71.5923 15.2225 72.7792 14.018 74.1971 14.018C75.5963 14.018 76.6952 15.2225 76.6952 16.8714C76.6952 18.5016 75.5963 19.6896 74.1971 19.6896ZM101.016 7.4972H96.0981V21.2483H98.1496V16.0387H101.015C103.29 16.0387 105.527 14.392 105.527 11.7685C105.527 9.145 103.291 7.4972 101.016 7.4972ZM101.069 14.1247H98.1496V9.4112H101.069C102.603 9.4112 103.475 10.6817 103.475 11.7685C103.475 12.8333 102.603 14.1247 101.069 14.1247ZM113.754 12.1502C112.268 12.1502 110.729 12.8047 110.092 14.2556L111.914 15.0157C112.303 14.2556 113.029 14.007 113.789 14.007C114.851 14.007 115.93 14.6439 115.948 15.7758V15.9177C115.576 15.7054 114.779 15.3875 113.807 15.3875C111.843 15.3875 109.844 16.4666 109.844 18.4829C109.844 20.3232 111.454 21.5079 113.258 21.5079C114.637 21.5079 115.399 20.8886 115.876 20.1626H115.946V21.2241H117.929V15.9518C117.93 13.512 116.106 12.1502 113.754 12.1502ZM113.506 19.6863C112.835 19.6863 111.896 19.3497 111.896 18.5181C111.896 17.4566 113.064 17.0496 114.073 17.0496C114.974 17.0496 115.4 17.2443 115.948 17.5094C115.788 18.7843 114.691 19.6863 113.506 19.6863ZM125.147 12.4505L122.794 18.4125H122.724L120.282 12.4505H118.071L121.732 20.783L119.645 25.4184H121.785L127.429 12.4505H125.147ZM106.66 21.2483H108.712V7.4972H106.66V21.2483Z" fill="white"/>
<g filter="url(#filter0_ii_12227_76655)">
<path d="M0.509301 0.437722C0.189201 0.776522 -4.69971e-07 1.30232 -4.69971e-07 1.98322V26.3108C-4.69971e-07 26.9928 0.189201 27.5175 0.509301 27.8563L0.5907 27.9355L14.2186 14.3076V14.147V13.9864L0.5907 0.357422L0.509301 0.437722Z" fill="url(#paint0_linear_12227_76655)"/>
<path d="M18.7606 18.8517L14.2187 14.3076V14.147V13.9864L18.7617 9.44336L18.8641 9.50166L24.2463 12.5597C25.783 13.4331 25.783 14.862 24.2463 15.7365L18.8641 18.7945L18.7606 18.8517Z" fill="url(#paint1_linear_12227_76655)"/>
<g filter="url(#filter1_i_12227_76655)">
<path d="M18.8644 18.7929L14.218 14.1465L0.509767 27.8558C1.01577 28.3926 1.85287 28.4586 2.79557 27.924L18.8644 18.7929Z" fill="url(#paint2_linear_12227_76655)"/>
</g>
<path d="M18.8644 9.49968L2.79557 0.369683C1.85287 -0.166017 1.01577 -0.098917 0.509767 0.437883L14.2191 14.1472L18.8644 9.49968Z" fill="url(#paint3_linear_12227_76655)"/>
</g>
<defs>
<filter id="filter0_ii_12227_76655" x="0" y="0" width="25.3984" height="28.293" filterUnits="userSpaceOnUse" color-interpolation-filters="sRGB">
<feFlood flood-opacity="0" result="BackgroundImageFix"/>
<feBlend mode="normal" in="SourceGraphic" in2="BackgroundImageFix" result="shape"/>
<feColorMatrix in="SourceAlpha" type="matrix" values="0 0 0 0 0 0 0 0 0 0 0 0 0 0 0 0 0 0 127 0" result="hardAlpha"/>
<feOffset dy="-0.15"/>
<feComposite in2="hardAlpha" operator="arithmetic" k2="-1" k3="1"/>
<feColorMatrix type="matrix" values="0 0 0 0 0 0 0 0 0 0 0 0 0 0 0 0 0 0 0.12 0"/>
<feBlend mode="normal" in2="shape" result="effect1_innerShadow_12227_76655"/>
<feColorMatrix in="SourceAlpha" type="matrix" values="0 0 0 0 0 0 0 0 0 0 0 0 0 0 0 0 0 0 127 0" result="hardAlpha"/>
<feOffset dy="0.15"/>
<feComposite in2="hardAlpha" operator="arithmetic" k2="-1" k3="1"/>
<feColorMatrix type="matrix" values="0 0 0 0 1 0 0 0 0 1 0 0 0 0 1 0 0 0 0.25 0"/>
<feBlend mode="normal" in2="effect1_innerShadow_12227_76655" result="effect2_innerShadow_12227_76655"/>
</filter>
<filter id="filter1_i_12227_76655" x="0.509766" y="14.1465" width="18.3545" height="14.1465" filterUnits="userSpaceOnUse" color-interpolation-filters="sRGB">
<feFlood flood-opacity="0" result="BackgroundImageFix"/>
<feBlend mode="normal" in="SourceGraphic" in2="BackgroundImageFix" result="shape"/>
<feColorMatrix in="SourceAlpha" type="matrix" values="0 0 0 0 0 0 0 0 0 0 0 0 0 0 0 0 0 0 127 0" result="hardAlpha"/>
<feOffset dy="-0.15"/>
<feComposite in2="hardAlpha" operator="arithmetic" k2="-1" k3="1"/>
<feColorMatrix type="matrix" values="0 0 0 0 0 0 0 0 0 0 0 0 0 0 0 0 0 0 0.08 0"/>
<feBlend mode="normal" in2="shape" result="effect1_innerShadow_12227_76655"/>
</filter>
<linearGradient id="paint0_linear_12227_76655" x1="13.0106" y1="1.72582" x2="-5.44962" y2="20.186" gradientUnits="userSpaceOnUse">
<stop stop-color="#00A0FF"/>
<stop offset="0.0066" stop-color="#00A1FF"/>
<stop offset="0.2601" stop-color="#00BEFF"/>
<stop offset="0.5122" stop-color="#00D2FF"/>
<stop offset="0.7604" stop-color="#00DFFF"/>
<stop offset="1" stop-color="#00E3FF"/>
</linearGradient>
<linearGradient id="paint1_linear_12227_76655" x1="26.2467" y1="14.147" x2="-0.368789" y2="14.147" gradientUnits="userSpaceOnUse">
<stop stop-color="#FFE000"/>
<stop offset="0.4087" stop-color="#FFBD00"/>
<stop offset="0.7754" stop-color="#FFA500"/>
<stop offset="1" stop-color="#FF9C00"/>
</linearGradient>
<linearGradient id="paint2_linear_12227_76655" x1="16.3411" y1="16.6698" x2="-8.69326" y2="41.7041" gradientUnits="userSpaceOnUse">
<stop stop-color="#FF3A44"/>
<stop offset="1" stop-color="#C31162"/>
</linearGradient>
<linearGradient id="paint3_linear_12227_76655" x1="-2.94269" y1="-7.66054" x2="8.23584" y2="3.51799" gradientUnits="userSpaceOnUse">
<stop stop-color="#32A071"/>
<stop offset="0.0685" stop-color="#2DA771"/>
<stop offset="0.4762" stop-color="#15CF74"/>
<stop offset="0.8009" stop-color="#06E775"/>
<stop offset="1" stop-color="#00F076"/>
</linearGradient>
</defs>
</svg>
