<svg width="57" height="56" viewBox="0 0 57 56" fill="none" xmlns="http://www.w3.org/2000/svg">
<path fill-rule="evenodd" clip-rule="evenodd" d="M52.0781 12.25L47.7276 47.117C47.3785 49.1969 41.5982 50.8463 34.5781 50.8463C27.5247 50.8463 21.7226 49.1733 21.4225 47.0794L17.0781 12.25H52.0781Z" fill="#E9F3FC"/>
<path fill-rule="evenodd" clip-rule="evenodd" d="M49.0006 12.25H52.0788L47.7283 47.117C47.3792 49.1969 41.5989 50.8463 34.5788 50.8463C27.5254 50.8463 21.7233 49.1733 21.4232 47.0794L19.3984 30.8473L25.0632 24.0004C28.1729 26.103 27.2656 33.9789 22.4408 43.687L22.6578 44.6863C23.2616 46.7408 25.5952 48.4531 32.6486 48.4531C39.6696 48.4531 45.4489 46.8046 45.7989 44.7239L49.0006 12.25Z" fill="#CADCF0"/>
<path fill-rule="evenodd" clip-rule="evenodd" d="M23.075 21.3835L24.9563 39.4653C25.0062 39.9457 25.4367 40.2957 25.917 40.2458C26.3974 40.196 26.7465 39.7646 26.6967 39.2851L24.8163 21.2023C24.7664 20.722 24.3359 20.3728 23.8555 20.4227C23.3752 20.4726 23.0252 20.9031 23.075 21.3835Z" fill="#347BFA"/>
<path fill-rule="evenodd" clip-rule="evenodd" d="M30.204 22.5902L31.079 42.0397C31.1 42.5218 31.5095 42.8963 31.9925 42.8744C32.4747 42.8526 32.8483 42.4431 32.8273 41.9609L31.9523 22.5114C31.9304 22.0293 31.5209 21.6548 31.0388 21.6767C30.5558 21.6986 30.1822 22.1081 30.204 22.5902Z" fill="#347BFA"/>
<path fill-rule="evenodd" clip-rule="evenodd" d="M44.3178 21.2144L42.6911 39.2962C42.6474 39.7775 43.0026 40.2036 43.4839 40.2465C43.9651 40.2894 44.3904 39.9341 44.4341 39.4537L46.0608 21.371C46.1036 20.8906 45.7484 20.4645 45.268 20.4216C44.7868 20.3779 44.3606 20.7331 44.3178 21.2144Z" fill="#347BFA"/>
<path fill-rule="evenodd" clip-rule="evenodd" d="M37.204 22.5114L36.329 41.9609C36.3072 42.4431 36.6808 42.8526 37.1638 42.8744C37.6459 42.8963 38.0554 42.5218 38.0773 42.0397L38.9523 22.5902C38.9733 22.1081 38.5997 21.6986 38.1175 21.6767C37.6345 21.6548 37.225 22.0293 37.204 22.5114Z" fill="#347BFA"/>
<path d="M34.5781 19.1543C44.2431 19.1543 52.0781 16.0203 52.0781 12.1543C52.0781 8.2883 44.2431 5.1543 34.5781 5.1543C24.9131 5.1543 17.0781 8.2883 17.0781 12.1543C17.0781 16.0203 24.9131 19.1543 34.5781 19.1543Z" fill="#A4BBDB"/>
<path fill-rule="evenodd" clip-rule="evenodd" d="M19.5316 8.5805C22.6536 7.70288 26.4564 7.1875 30.5566 7.1875C41.1564 7.1875 49.762 10.6297 49.762 14.87C49.762 15.1552 49.7235 15.437 49.6474 15.7144C46.5998 17.7732 40.9892 19.1549 34.5781 19.1549C24.919 19.1549 17.0781 16.0189 17.0781 12.1549C17.0781 10.8494 17.9732 9.627 19.5316 8.5805Z" fill="#8DA3BE"/>
<path fill-rule="evenodd" clip-rule="evenodd" d="M24.2814 23.385C24.3348 23.4104 24.3864 23.4375 24.4372 23.4673C27.1558 25.0362 26.0297 32.0834 21.925 39.1928C17.8204 46.303 12.2808 50.8005 9.56216 49.2317C9.51141 49.2019 9.46153 49.1704 9.41341 49.1372L9.40991 49.1433L6.37891 47.3933L8.14203 44.3387C8.44128 41.3593 9.80103 37.4419 12.0743 33.5053C14.3467 29.5687 17.06 26.4327 19.4899 24.6844L21.2539 21.6289L24.2849 23.3789L24.2814 23.385Z" fill="#A4BBDB"/>
<path fill-rule="evenodd" clip-rule="evenodd" d="M21.2796 21.6442C23.9983 23.214 22.8721 30.2604 18.7675 37.3706C14.6629 44.48 9.12325 48.9784 6.40463 47.4086C3.686 45.8397 4.81125 38.7925 8.91675 31.6831C13.0214 24.5729 18.561 20.0754 21.2796 21.6442Z" fill="#CADCF0"/>
<path fill-rule="evenodd" clip-rule="evenodd" d="M22.0952 29.6367C21.4416 32.0115 20.3163 34.6855 18.7676 37.3691C14.6629 44.4785 9.12331 48.9768 6.40468 47.4071C5.27156 46.7535 4.80606 45.1478 4.94606 42.9831C5.08606 43.1362 5.24006 43.2736 5.40981 43.3926C8.27281 45.4016 14.3803 41.6408 19.0406 34.9996C20.2997 33.2041 21.3261 31.3815 22.0952 29.6367Z" fill="#BAD0E7"/>
<path fill-rule="evenodd" clip-rule="evenodd" d="M11.2757 39.6197C11.2757 39.6197 10.6299 38.7429 10.0279 37.9257C9.61581 37.3657 9.57381 36.6149 9.92206 36.0129C10.7306 34.612 11.9328 32.5295 12.7221 31.1619C13.0502 30.594 13.6679 30.2572 14.3233 30.2895C15.4109 30.3429 16.6534 30.4033 16.6534 30.4033C17.1356 30.4269 17.5468 30.0542 17.5704 29.572C17.5941 29.0899 17.2213 28.6787 16.7392 28.655C16.7392 28.655 15.4967 28.5947 14.4091 28.5413C13.0992 28.4774 11.8628 29.1512 11.2066 30.2869C10.4173 31.6545 9.21506 33.737 8.40656 35.1379C7.71094 36.3419 7.79494 37.8434 8.61919 38.9634C9.22119 39.7807 9.86694 40.6574 9.86694 40.6574C10.1531 41.0459 10.7008 41.129 11.0902 40.8429C11.4787 40.5568 11.5618 40.0082 11.2757 39.6197Z" fill="#347BFA"/>
</svg>
