<svg width="107" height="103" viewBox="0 0 107 103" fill="none" xmlns="http://www.w3.org/2000/svg">
<path d="M100.902 47.1113C101.105 47.1111 101.303 47.171 101.471 47.2833C101.64 47.3957 101.771 47.5555 101.849 47.7426C101.927 47.9297 101.947 48.1356 101.908 48.3343C101.869 48.533 101.771 48.7156 101.628 48.859C101.485 49.0024 101.303 49.1001 101.104 49.1399C100.905 49.1796 100.699 49.1595 100.512 49.0822C100.325 49.0049 100.165 48.8738 100.052 48.7054C99.9394 48.5371 99.8791 48.3392 99.8789 48.1366C99.8787 47.865 99.9863 47.6044 100.178 47.4121C100.37 47.2199 100.63 47.1117 100.902 47.1113Z" fill="#5AC5DF"/>
<path d="M104.695 15.0996C104.898 15.0994 105.096 15.1593 105.264 15.2716C105.433 15.384 105.564 15.5438 105.642 15.7309C105.72 15.918 105.74 16.1239 105.701 16.3226C105.662 16.5213 105.564 16.7039 105.421 16.8473C105.278 16.9907 105.096 17.0884 104.897 17.1281C104.698 17.1679 104.492 17.1478 104.305 17.0705C104.118 16.9932 103.958 16.862 103.845 16.6937C103.732 16.5254 103.672 16.3275 103.672 16.1249C103.672 15.8533 103.779 15.5927 103.971 15.4004C104.163 15.2081 104.423 15.0999 104.695 15.0996Z" fill="#5AC5DF"/>
<path d="M72.2323 12.25C72.4348 12.2502 72.6327 12.3104 72.8009 12.4231C72.9692 12.5357 73.1003 12.6956 73.1777 12.8828C73.2551 13.0699 73.2753 13.2757 73.2357 13.4743C73.1962 13.6729 73.0986 13.8553 72.9555 13.9984C72.8123 14.1416 72.6299 14.2391 72.4313 14.2787C72.2327 14.3182 72.0269 14.2981 71.8398 14.2207C71.6527 14.1433 71.4927 14.0122 71.3801 13.8439C71.2675 13.6756 71.2072 13.4778 71.207 13.2753C71.2068 13.1406 71.2331 13.0071 71.2845 12.8826C71.3359 12.7581 71.4114 12.6449 71.5067 12.5497C71.602 12.4544 71.7151 12.3789 71.8396 12.3275C71.9641 12.276 72.0976 12.2497 72.2323 12.25Z" fill="#5AC5DF"/>
<path d="M50.8651 43.3633C51.0676 43.3635 51.2655 43.4237 51.4337 43.5363C51.602 43.649 51.7331 43.8089 51.8105 43.996C51.8879 44.1831 51.9081 44.389 51.8685 44.5876C51.829 44.7861 51.7315 44.9685 51.5883 45.1117C51.4451 45.2549 51.2627 45.3524 51.0641 45.392C50.8656 45.4315 50.6597 45.4113 50.4726 45.3339C50.2855 45.2566 50.1255 45.1254 50.0129 44.9572C49.9003 44.7889 49.8401 44.591 49.8398 44.3886C49.8396 44.2538 49.8659 44.1204 49.9173 43.9959C49.9687 43.8714 50.0443 43.7582 50.1395 43.663C50.2348 43.5677 50.3479 43.4922 50.4724 43.4408C50.597 43.3893 50.7304 43.363 50.8651 43.3633Z" fill="#5AC5DF"/>
<path d="M54.1112 54.0273C54.3137 54.0276 54.5116 54.0878 54.6798 54.2004C54.8481 54.313 54.9792 54.473 55.0566 54.6601C55.134 54.8472 55.1542 55.0531 55.1146 55.2516C55.0751 55.4502 54.9775 55.6326 54.8344 55.7758C54.6912 55.919 54.5088 56.0165 54.3102 56.056C54.1116 56.0956 53.9058 56.0754 53.7187 55.998C53.5316 55.9206 53.3716 55.7895 53.259 55.6212C53.1464 55.453 53.0862 55.2551 53.0859 55.0526C53.0857 54.9179 53.112 54.7844 53.1634 54.6599C53.2148 54.5354 53.2903 54.4223 53.3856 54.327C53.4809 54.2317 53.594 54.1562 53.7185 54.1048C53.843 54.0534 53.9765 54.0271 54.1112 54.0273Z" fill="#5AC5DF"/>
<path d="M95.1925 6.30123L91.8502 8.99552L92.1764 13.2757L88.5826 10.931L84.6115 12.5616L85.7327 8.41786L82.9531 5.14806L87.2397 4.93278L89.4927 1.2793L91.0211 5.28875L95.1925 6.30123Z" fill="#50DD5A"/>
<path d="M102.827 30.7663L99.4869 33.4605L99.8131 37.7386L96.2171 35.3939L92.2482 37.0245L93.3673 32.8829L90.5898 29.611L94.8764 29.3957L97.1294 25.7422L98.6578 29.7538L102.827 30.7663Z" fill="#50DD5A"/>
<path d="M90.1208 50.5892L85.8747 51.2053L83.9755 55.0548L82.0763 51.2053L77.8281 50.5892L80.9018 47.5923L80.1771 43.3633L83.9755 45.3605L87.7739 43.3633L87.0492 47.5923L90.1208 50.5892Z" fill="#50DD5A"/>
<path d="M74.1204 60.043V94.6786C74.1203 96.3881 73.4412 98.0276 72.2324 99.2364C71.0235 100.445 69.3841 101.124 67.6745 101.124H49.8398V60.043H74.1204Z" fill="#326CF6"/>
<path d="M61.0627 19.1137L65.8907 26.7063L43.5883 40.8854L35.3008 27.853L52.1635 17.1313C52.878 16.6771 53.6749 16.3681 54.5088 16.2219C55.3428 16.0756 56.1973 16.0951 57.0237 16.2792C57.8501 16.4633 58.6321 16.8084 59.3251 17.2947C60.0182 17.781 60.6086 18.3991 61.0627 19.1137Z" fill="#326CF6"/>
<path d="M33.582 60.043H49.8372V101.124H33.582V60.043Z" fill="#F9CD53"/>
<path d="M28.2574 32.3321V32.33L35.3022 27.8516L43.5896 40.8839L29.7601 49.6765L21.4727 36.6463L28.2574 32.3321Z" fill="#F9CD53"/>
<path d="M33.5856 60.043V101.124H20.0183C19.1716 101.125 18.3333 100.958 17.551 100.634C16.7688 100.31 16.058 99.8355 15.4593 99.2369C14.8605 98.6384 14.3855 97.9278 14.0614 97.1456C13.7373 96.3635 13.5704 95.5252 13.5703 94.6786V60.043H33.5856Z" fill="#326CF6"/>
<path d="M29.7602 49.6786L7.11037 64.0794L2.28453 56.4889C1.83012 55.7746 1.52088 54.9778 1.37447 54.1439C1.22805 53.3101 1.24734 52.4555 1.43123 51.6291C1.61511 50.8027 1.96 50.0206 2.44618 49.3276C2.93236 48.6345 3.55031 48.0439 4.26475 47.5897L21.4728 36.6484L29.7602 49.6786Z" fill="#326CF6"/>
<path d="M19.965 94.6786V60.043H13.5703V94.6786C13.5704 95.5252 13.7373 96.3635 14.0614 97.1456C14.3855 97.9278 14.8605 98.6384 15.4593 99.2369C16.058 99.8355 16.7688 100.31 17.551 100.634C18.3333 100.958 19.1716 101.125 20.0183 101.124H26.4129C25.5663 101.125 24.7279 100.958 23.9457 100.634C23.1635 100.31 22.4527 99.8355 21.8539 99.2369C21.2552 98.6384 20.7802 97.9278 20.4561 97.1456C20.132 96.3635 19.9651 95.5252 19.965 94.6786Z" fill="#1954E2"/>
<path d="M8.89171 52.011C8.13441 50.8202 7.78879 49.4137 7.90789 48.0075C8.02698 46.6013 8.60421 45.2731 9.551 44.2266L4.26475 47.588C3.55031 48.0423 2.93236 48.6328 2.44618 49.3259C1.96 50.019 1.61511 50.8011 1.43123 51.6274C1.24734 52.4538 1.22805 53.3084 1.37447 54.1422C1.52088 54.9761 1.83012 55.7729 2.28453 56.4872L7.11037 64.0777L13.7182 59.6015L8.89171 52.011Z" fill="#1954E2"/>
<path d="M74.1194 58.7628H17.8543L66.5773 27.7841C66.7191 27.694 66.8417 27.5769 66.9382 27.4393C67.0347 27.3018 67.1032 27.1467 67.1397 26.9827C67.1762 26.8187 67.18 26.6491 67.1509 26.4837C67.1219 26.3182 67.0606 26.1601 66.9704 26.0184L62.1431 18.4262C61.0422 16.6989 59.301 15.4788 57.3017 15.0336C55.3023 14.5884 53.208 14.9546 51.4783 16.0516L44.6221 20.4109L45.1652 17.8123C45.3793 16.8728 45.4057 15.9003 45.2427 14.9506C45.0798 14.0009 44.7309 13.0927 44.2159 12.2783C43.7009 11.4638 43.0301 10.7592 42.242 10.2048C41.4538 9.65044 40.5639 9.25726 39.6234 9.04785C38.6828 8.83845 37.7102 8.81695 36.7613 8.9846C35.8124 9.15225 34.906 9.50574 34.0941 10.0248C33.2823 10.5438 32.581 11.2181 32.0305 12.009C31.4801 12.7999 31.0913 13.6917 30.8866 14.6333L27.3248 30.6315L15.3985 27.9768C13.62 27.5804 11.7575 27.8622 10.1758 28.7669C8.59403 29.6717 7.40696 31.1342 6.84696 32.8682C6.28696 34.6022 6.39437 36.4829 7.14816 38.1418C7.90195 39.8008 9.24783 41.1187 10.9223 41.8375L3.57738 46.5077C1.85011 47.6086 0.630063 49.3497 0.184902 51.349C-0.26026 53.3483 0.105823 55.4425 1.20283 57.1723L6.03016 64.7647C6.12026 64.9064 6.2374 65.029 6.37489 65.1255C6.51238 65.222 6.66753 65.2905 6.83148 65.327C6.99544 65.3635 7.16498 65.3674 7.33042 65.3384C7.49587 65.3094 7.65398 65.248 7.79573 65.1579L12.289 62.3016V94.6774C12.2914 96.7257 13.1061 98.6894 14.5545 100.138C16.0029 101.586 17.9667 102.401 20.0151 102.403H67.6732C69.7214 102.401 71.6851 101.586 73.1334 100.138C74.5818 98.6893 75.3964 96.7256 75.3988 94.6774V60.0418C75.3988 59.8738 75.3657 59.7074 75.3014 59.5522C75.2371 59.3971 75.1428 59.256 75.024 59.1373C74.9052 59.0185 74.7642 58.9243 74.609 58.8601C74.4537 58.7958 74.2874 58.7628 74.1194 58.7628ZM52.8508 18.2105C53.6757 17.683 54.6343 17.4023 55.6135 17.4018C55.9946 17.402 56.3746 17.4439 56.7466 17.5269C57.4097 17.6727 58.0373 17.9486 58.593 18.3385C59.1488 18.7285 59.6217 19.2248 59.9844 19.7987L64.1256 26.3117L43.9824 39.1193L37.0685 28.2454L52.8508 18.2105ZM33.3833 15.1894C33.6596 13.9586 34.4135 12.8879 35.4793 12.2129C36.545 11.538 37.8352 11.314 39.066 11.5903C40.2969 11.8666 41.3675 12.6205 42.0425 13.6863C42.7175 14.752 42.9415 16.0422 42.6651 17.273L41.6152 22.2958L30.1757 29.5962L33.3833 15.1894ZM34.9095 29.6179L41.8234 40.4918L30.151 47.913L23.2373 37.0391L34.9095 29.6179ZM9.79533 37.6684C9.29055 36.8745 9.03251 35.9488 9.05384 35.0083C9.07518 34.0678 9.37493 33.1548 9.91519 32.3846C10.4555 31.6145 11.212 31.0219 12.089 30.6817C12.9661 30.3415 13.9244 30.2691 14.8426 30.4735L25.1775 32.7743L13.705 39.966L12.7752 39.7588C12.165 39.6247 11.5874 39.3708 11.0759 39.012C10.5644 38.6532 10.1292 38.1965 9.79533 37.6684ZM7.50285 62.3131L3.36188 55.8C2.62808 54.643 2.38316 53.2421 2.68087 51.9048C2.97857 50.5674 3.79458 49.4028 4.94989 48.6663L21.0787 38.4116L27.9924 49.2855L7.50285 62.3131ZM32.3041 99.8451H20.0151C18.645 99.8435 17.3315 99.2986 16.3627 98.3298C15.3939 97.361 14.8489 96.0474 14.8473 94.6774V61.3207H32.3047L32.3041 99.8451ZM48.5602 99.8451H34.862V61.3207H48.5602V99.8451ZM72.8405 94.6774C72.8389 96.0474 72.294 97.3608 71.3253 98.3296C70.3566 99.2984 69.0432 99.8434 67.6732 99.8451H51.118V61.3207H72.8405V94.6774Z" fill="#284268"/>
<path d="M88.4189 47.1463L89.0307 43.5791C89.0709 43.344 89.0446 43.1023 88.9547 42.8813C88.8649 42.6604 88.7149 42.469 88.522 42.3287C88.329 42.1885 88.1007 42.105 87.8627 42.0877C87.6248 42.0704 87.3868 42.12 87.1756 42.2309L83.9723 43.9149L80.7688 42.2309C80.5575 42.1199 80.3195 42.0701 80.0814 42.0873C79.8434 42.1045 79.6149 42.188 79.4219 42.3282C79.2288 42.4685 79.0788 42.66 78.9889 42.881C78.899 43.1021 78.8727 43.3439 78.9131 43.5791L79.5248 47.1463L76.9333 49.6722C76.7623 49.8387 76.6414 50.0498 76.5842 50.2815C76.527 50.5132 76.5357 50.7563 76.6094 50.9833C76.6832 51.2103 76.819 51.4121 77.0015 51.566C77.1839 51.7198 77.4058 51.8195 77.642 51.8538L81.223 52.3743L82.8247 55.6196C82.9303 55.8337 83.0936 56.0139 83.2963 56.14C83.499 56.266 83.733 56.3328 83.9716 56.3328C84.2103 56.3328 84.4443 56.266 84.647 56.14C84.8497 56.0139 85.0131 55.8337 85.1186 55.6196L86.7201 52.3743L90.3011 51.8538C90.5373 51.8195 90.7592 51.7198 90.9416 51.566C91.1241 51.4121 91.2599 51.2103 91.3336 50.9833C91.4074 50.7563 91.4161 50.5132 91.3589 50.2815C91.3017 50.0498 91.1808 49.8387 91.0098 49.6722L88.4189 47.1463ZM85.6869 49.9386C85.4817 49.9684 85.2868 50.0477 85.119 50.1695C84.9513 50.2914 84.8157 50.4523 84.7239 50.6382L83.9716 52.1627L83.2192 50.6382C83.1274 50.4523 82.9919 50.2915 82.8241 50.1696C82.6564 50.0477 82.4616 49.9685 82.2564 49.9386L80.5737 49.6941L81.7913 48.5075C81.9398 48.3628 82.0509 48.1841 82.115 47.9869C82.1791 47.7897 82.1942 47.5798 82.1592 47.3754L81.8716 45.6996L83.3765 46.4906C83.56 46.5872 83.7643 46.6377 83.9716 46.6377C84.179 46.6377 84.3833 46.5872 84.5668 46.4906L86.0714 45.6996L85.7841 47.3754C85.749 47.5798 85.7642 47.7896 85.8282 47.9868C85.8923 48.1841 86.0033 48.3627 86.1518 48.5075L87.3693 49.6941L85.6869 49.9386Z" fill="#284268"/>
<path d="M103.128 29.5243L99.6107 28.6696L98.3209 25.2883C98.2359 25.0653 98.0902 24.8705 97.9002 24.726C97.7103 24.5814 97.4837 24.493 97.2461 24.4705C97.0084 24.4481 96.7693 24.4926 96.5556 24.599C96.342 24.7054 96.1624 24.8694 96.0371 25.0726L94.1377 28.1533L90.5232 28.3352C90.2849 28.3471 90.0547 28.4256 89.8586 28.5616C89.6626 28.6976 89.5084 28.8857 89.4137 29.1047C89.319 29.3237 89.2874 29.5649 89.3226 29.8009C89.3577 30.0369 89.4582 30.2584 89.6126 30.4403L91.9554 33.1987L91.0118 36.6923C90.9495 36.9227 90.953 37.1659 91.0217 37.3944C91.0905 37.623 91.2218 37.8277 91.4008 37.9855C91.5798 38.1433 91.7994 38.2478 92.0348 38.2873C92.2702 38.3268 92.5119 38.2996 92.7326 38.2089L96.0791 36.8332L99.1117 38.8107C99.3115 38.941 99.5439 39.0129 99.7825 39.0181C100.021 39.0234 100.256 38.9617 100.462 38.8402C100.667 38.7187 100.834 38.5422 100.945 38.3306C101.055 38.119 101.104 37.8807 101.086 37.6428L100.812 34.0341L103.628 31.7625C103.814 31.6127 103.954 31.414 104.033 31.1887C104.111 30.9635 104.125 30.7207 104.073 30.4879C104.021 30.2551 103.905 30.0415 103.738 29.8712C103.571 29.7009 103.36 29.5808 103.128 29.5243ZM98.6822 32.4659C98.5208 32.5961 98.3935 32.7635 98.3112 32.9538C98.2289 33.1441 98.1941 33.3516 98.2098 33.5583L98.3377 35.2535L96.9136 34.3244C96.74 34.2111 96.5414 34.1418 96.335 34.1223C96.1285 34.1028 95.9205 34.1339 95.7287 34.2127L94.1565 34.859L94.5998 33.2177C94.6539 33.0175 94.6585 32.8072 94.6133 32.6049C94.568 32.4025 94.4742 32.2142 94.34 32.0562L93.2395 30.7604L94.9375 30.6752C95.1446 30.6648 95.3461 30.6043 95.5246 30.4987C95.7031 30.3932 95.8532 30.2459 95.9621 30.0694L96.8542 28.6223L97.4599 30.2107C97.5339 30.4044 97.6538 30.5772 97.8093 30.7143C97.9649 30.8513 98.1514 30.9485 98.3529 30.9975L100.005 31.399L98.6822 32.4659Z" fill="#284268"/>
<path d="M84.3198 8.73361L83.3757 12.2272C83.3134 12.4576 83.3168 12.7008 83.3855 12.9294C83.4542 13.158 83.5855 13.3627 83.7646 13.5206C83.9436 13.6784 84.1633 13.7829 84.3986 13.8224C84.634 13.8619 84.8758 13.8348 85.0965 13.744L88.443 12.3681L91.4743 14.346C91.6742 14.4764 91.9066 14.5482 92.1452 14.5535C92.3837 14.5587 92.619 14.497 92.8244 14.3755C93.0298 14.254 93.1971 14.0774 93.3073 13.8658C93.4176 13.6541 93.4664 13.4159 93.4484 13.1779L93.1744 9.56918L95.9915 7.29737C96.1772 7.14759 96.3173 6.94885 96.396 6.72361C96.4746 6.49837 96.4887 6.25562 96.4367 6.0228C96.3846 5.78997 96.2685 5.57634 96.1014 5.40607C95.9342 5.2358 95.7228 5.11566 95.491 5.05924L91.974 4.2047L90.6844 0.823206C90.5993 0.600205 90.4536 0.40545 90.2636 0.260969C90.0736 0.116487 89.847 0.0280455 89.6094 0.00564578C89.3718 -0.0167539 89.1327 0.0277822 88.919 0.134217C88.7054 0.240652 88.5258 0.40474 88.4006 0.607919L86.5014 3.68844L82.8867 3.87005C82.6484 3.882 82.4181 3.96041 82.222 4.09639C82.0259 4.23237 81.8718 4.4205 81.777 4.63952C81.6823 4.85854 81.6507 5.0997 81.6858 5.33573C81.721 5.57177 81.8215 5.79326 81.9759 5.97517L84.3198 8.73361ZM87.302 6.209C87.5091 6.1986 87.7106 6.138 87.889 6.03243C88.0675 5.92686 88.2176 5.77949 88.3264 5.603L89.2187 4.15589L89.8245 5.74432C89.8984 5.93805 90.0183 6.11091 90.1738 6.248C90.3294 6.3851 90.5159 6.48232 90.7174 6.53129L92.3694 6.93266L91.0461 7.99972C90.8847 8.12986 90.7573 8.29729 90.675 8.4876C90.5927 8.67791 90.5578 8.88538 90.5735 9.09214L90.7014 10.7876L89.2773 9.85843C89.1037 9.74516 88.9051 9.67581 88.6986 9.65635C88.4922 9.63689 88.2842 9.66791 88.0924 9.74674L86.5202 10.393L86.9635 8.75173C87.0176 8.55154 87.0223 8.34119 86.977 8.13881C86.9317 7.93643 86.8379 7.74809 86.7037 7.59003L85.6032 6.29405L87.302 6.209Z" fill="#284268"/>
<path d="M61.1181 47.33C58.2307 49.1471 56.82 51.349 56.7614 51.4419C56.5797 51.7284 56.5193 52.0753 56.5934 52.4063C56.6675 52.7373 56.87 53.0253 57.1565 53.207C57.4429 53.3886 57.7898 53.4491 58.1208 53.375C58.4518 53.3009 58.7398 53.0983 58.9215 52.8119C59.1134 52.5135 63.7407 45.5188 73.8125 48.0101C74.1405 48.0881 74.4861 48.0334 74.7739 47.8579C75.0618 47.6825 75.2687 47.4004 75.3497 47.0731C75.4307 46.7459 75.3793 46.3999 75.2065 46.1104C75.0337 45.8209 74.7536 45.6113 74.4271 45.5273C68.2302 43.9941 63.7691 45.6612 61.1181 47.33Z" fill="#284268"/>
<path d="M85.3847 33.786C85.698 33.916 86.0502 33.9163 86.3636 33.7867C86.6771 33.6571 86.9263 33.4083 87.0563 33.095C87.1863 32.7817 87.1866 32.4295 87.057 32.1161C86.9274 31.8026 86.6786 31.5534 86.3652 31.4234C77.2605 27.6448 70.6431 30.4744 66.6953 33.514C64.0762 35.5508 61.9083 38.1091 60.3288 41.0269C60.2541 41.1773 60.2097 41.341 60.1983 41.5086C60.1868 41.6761 60.2085 41.8443 60.2621 42.0035C60.3156 42.1627 60.4 42.3097 60.5104 42.4363C60.6208 42.5629 60.755 42.6665 60.9055 42.7412C61.0559 42.8159 61.2196 42.8602 61.3871 42.8717C61.5547 42.8831 61.7229 42.8614 61.882 42.8079C62.0412 42.7543 62.1883 42.67 62.3149 42.5596C62.4415 42.4492 62.5451 42.3149 62.6198 42.1645C64.0291 39.5968 65.9467 37.3431 68.2556 35.5407C73.2195 31.7199 78.9826 31.129 85.3847 33.786Z" fill="#284268"/>
<path d="M71.0152 24.3112C70.9108 24.6339 70.9389 24.9848 71.0933 25.2868C71.2477 25.5888 71.5157 25.8171 71.8384 25.9215C73.5991 26.4403 75.4251 26.7042 77.2606 26.7051C79.3994 26.7051 81.8697 26.3191 84.0848 25.006C86.9837 23.2884 88.8424 20.362 89.6128 16.3093C89.6448 16.144 89.6439 15.9741 89.6101 15.8092C89.5762 15.6443 89.5102 15.4877 89.4157 15.3483C89.3213 15.209 89.2002 15.0897 89.0595 14.9972C88.9189 14.9048 88.7613 14.841 88.5959 14.8096C88.4305 14.7782 88.2606 14.7797 88.0958 14.8141C87.931 14.8485 87.7746 14.9151 87.6356 15.0101C87.4967 15.1051 87.3778 15.2265 87.2858 15.3676C87.1939 15.5086 87.1307 15.6664 87.0999 15.8318C86.4736 19.1274 85.0242 21.4719 82.7918 22.7999C78.5455 25.3264 72.7166 23.5176 72.6243 23.4882C72.3018 23.3842 71.9512 23.4124 71.6495 23.5668C71.3478 23.7211 71.1196 23.9888 71.0152 24.3112Z" fill="#284268"/>
<path d="M54.1078 57.3567C54.5634 57.3567 55.0088 57.2217 55.3876 56.9686C55.7664 56.7156 56.0616 56.3558 56.236 55.935C56.4104 55.5141 56.456 55.0509 56.3672 54.6041C56.2783 54.1573 56.059 53.7469 55.7368 53.4247C55.4147 53.1026 55.0043 52.8832 54.5575 52.7943C54.1107 52.7054 53.6475 52.751 53.2266 52.9253C52.8057 53.0996 52.446 53.3949 52.1929 53.7737C51.9398 54.1524 51.8047 54.5978 51.8047 55.0534C51.8054 55.664 52.0483 56.2494 52.4801 56.6812C52.9118 57.113 53.4972 57.3559 54.1078 57.3567ZM54.1078 54.7988C54.1582 54.7988 54.2075 54.8137 54.2494 54.8417C54.2913 54.8697 54.324 54.9094 54.3433 54.956C54.3626 55.0025 54.3677 55.0538 54.3579 55.1032C54.3481 55.1526 54.3238 55.198 54.2882 55.2337C54.2525 55.2693 54.2071 55.2936 54.1577 55.3034C54.1083 55.3132 54.057 55.3082 54.0105 55.2889C53.9639 55.2696 53.9241 55.2369 53.8962 55.195C53.8682 55.153 53.8533 55.1037 53.8533 55.0534C53.8537 54.986 53.8806 54.9214 53.9282 54.8738C53.9759 54.8261 54.0404 54.7992 54.1078 54.7988Z" fill="#284268"/>
<path d="M72.233 15.5774C72.6886 15.5774 73.1339 15.4423 73.5127 15.1892C73.8915 14.9361 74.1867 14.5764 74.3611 14.1555C74.5354 13.7346 74.581 13.2715 74.4921 12.8247C74.4033 12.3779 74.1839 11.9675 73.8618 11.6453C73.5396 11.3232 73.1292 11.1038 72.6824 11.015C72.2356 10.9261 71.7725 10.9717 71.3516 11.146C70.9307 11.3204 70.571 11.6156 70.3179 11.9944C70.0648 12.3732 69.9297 12.8185 69.9297 13.2741C69.9304 13.8847 70.1733 14.4702 70.6051 14.902C71.0369 15.3338 71.6224 15.5767 72.233 15.5774ZM72.233 13.0196C72.2834 13.0196 72.3327 13.0345 72.3746 13.0625C72.4165 13.0905 72.4491 13.1303 72.4684 13.1768C72.4877 13.2234 72.4927 13.2746 72.4829 13.324C72.473 13.3735 72.4487 13.4188 72.4131 13.4545C72.3774 13.4901 72.332 13.5143 72.2826 13.5241C72.2332 13.5339 72.182 13.5289 72.1354 13.5095C72.0889 13.4902 72.0491 13.4575 72.0211 13.4156C71.9932 13.3737 71.9783 13.3244 71.9783 13.2741C71.9787 13.2066 72.0056 13.1421 72.0533 13.0944C72.101 13.0467 72.1656 13.0198 72.233 13.0196Z" fill="#284268"/>
<path d="M104.698 13.8203C104.242 13.8203 103.797 13.9554 103.418 14.2085C103.039 14.4616 102.744 14.8214 102.57 15.2423C102.396 15.6632 102.35 16.1263 102.439 16.5731C102.528 17.0199 102.747 17.4303 103.069 17.7525C103.391 18.0746 103.802 18.2939 104.249 18.3828C104.695 18.4716 105.159 18.426 105.579 18.2516C106 18.0773 106.36 17.782 106.613 17.4032C106.866 17.0244 107.001 16.579 107.001 16.1235C107.001 15.5128 106.758 14.9273 106.326 14.4956C105.894 14.0638 105.309 13.8209 104.698 13.8203ZM104.698 16.3782C104.648 16.3782 104.598 16.3632 104.556 16.3352C104.514 16.3073 104.482 16.2675 104.463 16.2209C104.443 16.1744 104.438 16.1232 104.448 16.0738C104.458 16.0243 104.482 15.979 104.518 15.9433C104.553 15.9077 104.599 15.8835 104.648 15.8736C104.698 15.8638 104.749 15.8688 104.795 15.8881C104.842 15.9074 104.882 15.9401 104.91 15.9819C104.938 16.0238 104.953 16.0731 104.953 16.1235C104.952 16.1909 104.925 16.2556 104.878 16.3033C104.83 16.351 104.765 16.3779 104.698 16.3782Z" fill="#284268"/>
<path d="M53.1692 44.3854C53.1692 43.9298 53.0341 43.4844 52.7809 43.1056C52.5278 42.7268 52.168 42.4315 51.747 42.2572C51.3261 42.0829 50.8629 42.0374 50.416 42.1264C49.9692 42.2154 49.5588 42.4349 49.2367 42.7571C48.9146 43.0794 48.6953 43.4899 48.6066 43.9368C48.5179 44.3837 48.5637 44.8469 48.7382 45.2677C48.9127 45.6886 49.2082 46.0482 49.5871 46.3012C49.9661 46.5541 50.4115 46.689 50.8671 46.6887C51.4776 46.6878 52.0628 46.4448 52.4943 46.013C52.9259 45.5812 53.1686 44.9959 53.1692 44.3854ZM50.8671 44.6412C50.8168 44.6412 50.7676 44.6263 50.7257 44.5984C50.6838 44.5705 50.6511 44.5308 50.6318 44.4843C50.6124 44.4378 50.6073 44.3867 50.617 44.3373C50.6267 44.2879 50.6508 44.2425 50.6864 44.2068C50.7219 44.1711 50.7672 44.1467 50.8165 44.1368C50.8658 44.1268 50.917 44.1317 50.9636 44.1508C51.0102 44.1699 51.0501 44.2024 51.0782 44.2441C51.1063 44.2859 51.1214 44.335 51.1216 44.3854C51.1214 44.453 51.0943 44.5178 51.0464 44.5655C50.9985 44.6132 50.9337 44.6401 50.8661 44.6401L50.8671 44.6412Z" fill="#284268"/>
<path d="M100.905 45.832C100.449 45.832 100.004 45.9671 99.6252 46.2202C99.2465 46.4733 98.9512 46.833 98.7769 47.2539C98.6026 47.6748 98.5569 48.1379 98.6458 48.5848C98.7347 49.0316 98.9541 49.442 99.2762 49.7641C99.5983 50.0862 100.009 50.3056 100.456 50.3945C100.902 50.4834 101.365 50.4377 101.786 50.2634C102.207 50.0891 102.567 49.7938 102.82 49.4151C103.073 49.0363 103.208 48.5909 103.208 48.1354C103.208 47.5247 102.965 46.9392 102.533 46.5074C102.101 46.0756 101.516 45.8327 100.905 45.832ZM100.905 48.3899C100.855 48.3899 100.805 48.3749 100.764 48.3469C100.722 48.3189 100.689 48.2791 100.67 48.2326C100.651 48.1861 100.646 48.135 100.656 48.0856C100.665 48.0362 100.69 47.9909 100.725 47.9553C100.761 47.9198 100.806 47.8956 100.856 47.8858C100.905 47.876 100.956 47.881 101.003 47.9003C101.049 47.9195 101.089 47.9522 101.117 47.994C101.145 48.0359 101.16 48.0851 101.16 48.1354C101.159 48.2028 101.132 48.2674 101.085 48.3151C101.037 48.3627 100.972 48.3896 100.905 48.3899Z" fill="#284268"/>
</svg>
