<svg width="36" height="36" viewBox="0 0 36 36" fill="none" xmlns="http://www.w3.org/2000/svg">
<circle cx="18.0003" cy="18" r="17.1429" fill="#EDC15C"/>
<mask id="mask0_3494_61700" style="mask-type:alpha" maskUnits="userSpaceOnUse" x="0" y="0" width="36" height="36">
<circle cx="18.0003" cy="18" r="17.1429" fill="#189972"/>
</mask>
<g mask="url(#mask0_3494_61700)">
<path d="M17.7971 41.0327C16.3005 41.0327 14.8652 40.4382 13.807 39.38C12.7488 38.3217 12.1543 36.8865 12.1543 35.3899V23.3755H23.4463V35.3899C23.4463 36.1315 23.3001 36.8658 23.0162 37.5508C22.7322 38.2359 22.316 38.8582 21.7913 39.3823C21.2666 39.9063 20.6438 40.3218 19.9584 40.605C19.2731 40.8882 18.5386 41.0336 17.7971 41.0327Z" fill="#CC8070"/>
<path d="M12.1602 27.1958C12.1602 27.1958 15.2646 32.9622 18.8117 32.6824C24.2983 32.2463 23.3676 25.4451 23.3676 25.4451C23.3676 25.4451 21.2393 30.0009 17.8745 30.0009C16.7731 29.9894 15.6882 29.7315 14.6994 29.2461C13.7106 28.7607 12.843 28.0602 12.1602 27.1958Z" fill="#B76456"/>
<path d="M9.38095 19.2167L8.82123 13.5088C8.0988 9.85763 10.943 7.93115 13.4357 7.93115H22.0527C24.6951 7.93115 27.8387 9.84461 26.5045 13.9579L25.73 20.1734L9.38095 19.2167Z" fill="#070924"/>
<path d="M25.1516 22.3405C26.8568 23.6031 29.8116 17.8627 28.1455 16.483C26.4794 15.1032 25.3794 17.6154 25.3794 17.6154L25.3404 19.7241L25.0996 21.6767L25.002 22.2819L25.1516 22.3405Z" fill="#CC8070"/>
<path d="M27.6891 18.2333C27.6891 18.2333 26.446 17.8233 25.5674 19.6457" stroke="#070924" stroke-width="0.52" stroke-linecap="round" stroke-linejoin="round"/>
<path d="M26.1738 18.7737C26.1738 18.7737 27.5211 19.4961 26.6294 20.5765" stroke="#070924" stroke-width="0.52" stroke-linecap="round" stroke-linejoin="round"/>
<path d="M10.2274 22.3402C8.51572 23.6029 5.56092 17.8625 7.22706 16.4827C8.8932 15.1029 9.93454 17.6672 9.93454 17.6672L10.0322 19.7499L10.2795 21.7024L10.3706 22.3077L10.2274 22.3402Z" fill="#CC8070"/>
<path d="M7.68945 18.2333C7.68945 18.2333 8.92604 17.8233 9.80467 19.6457" stroke="#070924" stroke-width="0.52" stroke-linecap="round" stroke-linejoin="round"/>
<path d="M9.20553 18.7737C9.20553 18.7737 7.85179 19.4961 8.74343 20.5765" stroke="#070924" stroke-width="0.52" stroke-linecap="round" stroke-linejoin="round"/>
<path d="M25.7105 14.9343C25.7058 17.8924 25.3895 20.8418 24.7668 23.7336C24.3001 25.8756 23.0067 27.7469 21.1677 28.9403L20.8292 29.1616C19.8754 29.7811 18.7651 30.1167 17.6277 30.1294C16.4904 30.1421 15.3729 29.8312 14.4055 29.2332C13.4206 28.6294 12.5727 27.8266 11.9159 26.8762C11.2592 25.9258 10.8081 24.8488 10.5916 23.7141C10.0923 20.8121 9.80303 17.8779 9.72595 14.9343C9.72595 14.9343 8.984 5.96574 17.6076 6.14147C26.2312 6.31719 25.7105 14.9343 25.7105 14.9343Z" fill="#CC8070"/>
<path d="M25.8282 4.7679C23.0881 2.81539 17.6797 4.18865 14.7249 5.54239C14.79 4.65725 14.2498 4.75488 14.2498 4.75488C9.04307 6.14767 10.4228 10.2349 10.4228 10.2349H10.4684C9.92821 11.4129 9.22531 13.9187 9.88916 18.455C9.88916 18.455 11.2689 13.5477 11.3015 10.645C13.6054 11.6603 19.9121 14.1269 24.0253 12.7472C24.3925 14.6892 24.8882 16.6047 25.5093 18.481C25.8738 16.3432 25.8605 14.158 25.4702 12.0247C25.7271 11.8482 25.9649 11.6453 26.1796 11.4194C26.1796 11.4194 29.7071 7.51443 25.8282 4.7679Z" fill="#070924"/>
<path d="M16.9629 18.3701V21.2663C16.9638 21.362 16.9814 21.4567 17.015 21.5462C17.0888 21.706 17.2171 21.8343 17.3769 21.9082C17.5366 21.9821 17.7175 21.9969 17.8871 21.9497L18.642 21.748" stroke="#070924" stroke-width="0.52" stroke-linecap="round" stroke-linejoin="round"/>
<path d="M14.0932 18.3121C14.5066 18.3121 14.8417 17.977 14.8417 17.5636C14.8417 17.1503 14.5066 16.8152 14.0932 16.8152C13.6798 16.8152 13.3447 17.1503 13.3447 17.5636C13.3447 17.977 13.6798 18.3121 14.0932 18.3121Z" fill="#070924"/>
<path d="M21.0239 18.3121C21.4372 18.3121 21.7723 17.977 21.7723 17.5636C21.7723 17.1503 21.4372 16.8152 21.0239 16.8152C20.6105 16.8152 20.2754 17.1503 20.2754 17.5636C20.2754 17.977 20.6105 18.3121 21.0239 18.3121Z" fill="#070924"/>
<path d="M15.4542 18.3835L13.5928 19.6136" stroke="#070924" stroke-width="0.39" stroke-linecap="round" stroke-linejoin="round"/>
<path d="M19.8467 18.3772L21.4933 19.6203" stroke="#070924" stroke-width="0.39" stroke-linecap="round" stroke-linejoin="round"/>
<path d="M15.5186 23.3755C16.1472 23.7239 16.8659 23.8758 17.5817 23.8115C18.3401 23.8287 19.0931 23.6798 19.788 23.3755" stroke="#070924" stroke-width="0.52" stroke-linecap="round" stroke-linejoin="round"/>
<path d="M17.6396 27.4106V28.2242" stroke="#070924" stroke-width="0.39" stroke-linecap="round" stroke-linejoin="round"/>
<path d="M15.9946 15.8511V14.3867L13.2871 14.4388C12.947 14.4461 12.6192 14.5676 12.3564 14.7837L11.2891 16.0268L13.0789 15.76L15.9946 15.8511Z" fill="#070924"/>
<path d="M19.1634 15.8511L19.1309 14.3867L21.8383 14.4388C22.1787 14.4451 22.5068 14.5667 22.769 14.7837L23.8494 16.0268L22.0531 15.76L19.1634 15.8511Z" fill="#070924"/>
<path opacity="0.19" d="M24.9556 18.3313C24.9556 18.9749 24.7648 19.6041 24.4072 20.1393C24.0496 20.6744 23.5414 21.0915 22.9468 21.3378C22.3521 21.5841 21.6978 21.6486 21.0666 21.523C20.4353 21.3974 19.8555 21.0875 19.4004 20.6324C18.9453 20.1773 18.6354 19.5974 18.5098 18.9662C18.3842 18.3349 18.4487 17.6806 18.695 17.086C18.9413 16.4914 19.3584 15.9832 19.8935 15.6256C20.4287 15.268 21.0578 15.0771 21.7015 15.0771C22.5645 15.0771 23.3922 15.42 24.0025 16.0303C24.6128 16.6406 24.9556 17.4683 24.9556 18.3313Z" fill="#E2EAFE"/>
<path opacity="0.19" d="M16.9771 18.3313C16.9771 18.9749 16.7863 19.6041 16.4287 20.1393C16.0711 20.6744 15.5629 21.0915 14.9683 21.3378C14.3736 21.5841 13.7193 21.6486 13.0881 21.523C12.4568 21.3974 11.877 21.0875 11.4219 20.6324C10.9668 20.1773 10.6568 19.5974 10.5313 18.9662C10.4057 18.3349 10.4702 17.6806 10.7165 17.086C10.9628 16.4914 11.3799 15.9832 11.915 15.6256C12.4502 15.268 13.0793 15.0771 13.7229 15.0771C14.586 15.0771 15.4137 15.42 16.024 16.0303C16.6343 16.6406 16.9771 17.4683 16.9771 18.3313Z" fill="#E2EAFE"/>
<path d="M16.9771 18.3313C16.9771 18.9749 16.7863 19.6041 16.4287 20.1393C16.0711 20.6744 15.5629 21.0915 14.9683 21.3378C14.3736 21.5841 13.7193 21.6486 13.0881 21.523C12.4568 21.3974 11.877 21.0875 11.4219 20.6324C10.9668 20.1773 10.6568 19.5974 10.5313 18.9662C10.4057 18.3349 10.4702 17.6806 10.7165 17.086C10.9628 16.4914 11.3799 15.9832 11.915 15.6256C12.4502 15.268 13.0793 15.0771 13.7229 15.0771C14.586 15.0771 15.4137 15.42 16.024 16.0303C16.6343 16.6406 16.9771 17.4683 16.9771 18.3313Z" stroke="#1A1A1A" stroke-width="0.33" stroke-linecap="round" stroke-linejoin="round"/>
<path d="M24.9556 18.3313C24.9556 18.9749 24.7648 19.6041 24.4072 20.1393C24.0496 20.6744 23.5414 21.0915 22.9468 21.3378C22.3521 21.5841 21.6978 21.6486 21.0666 21.523C20.4353 21.3974 19.8555 21.0875 19.4004 20.6324C18.9453 20.1773 18.6354 19.5974 18.5098 18.9662C18.3842 18.3349 18.4487 17.6806 18.695 17.086C18.9413 16.4914 19.3584 15.9832 19.8935 15.6256C20.4287 15.268 21.0578 15.0771 21.7015 15.0771C22.5645 15.0771 23.3922 15.42 24.0025 16.0303C24.6128 16.6406 24.9556 17.4683 24.9556 18.3313V18.3313Z" stroke="#1A1A1A" stroke-width="0.33" stroke-linecap="round" stroke-linejoin="round"/>
<path d="M16.9766 18.3313C17.1737 18.1378 17.439 18.0293 17.7153 18.0293C17.9916 18.0293 18.2568 18.1378 18.454 18.3313" stroke="#1A1A1A" stroke-width="0.33" stroke-linecap="round" stroke-linejoin="round"/>
<path d="M10.5011 18.3313H9.96094" stroke="#1A1A1A" stroke-width="0.33" stroke-miterlimit="10"/>
<path d="M25.5675 18.3313H25.0273" stroke="#1A1A1A" stroke-width="0.33" stroke-miterlimit="10"/>
</g>
</svg>
